# Blender 4.0.2
# www.blender.org
mtllib 2DRoundedSquare.mtl
o pCube1
v 0.500000 -0.250025 0.000000 0.91 0.09 0.0 0.9933071490757153 0.0 0.006692850924284732
v 0.250025 -0.500000 0.000000 0.88 0.12 0.0 0.9241593440496285 0.0 0.07584065595037148
v 0.289130 -0.496922 0.000000 0.85 0.15 0.0 0.9474146853771027 0.0 0.05258531462289728
v 0.327271 -0.487765 0.000000 0.82 0.18 0.0 0.9634806448093944 0.0 0.03651935519060556
v 0.363511 -0.472754 0.000000 0.79 0.21 0.0 0.9742970383476638 0.0 0.02570296165233621
v 0.396957 -0.452259 0.000000 0.76 0.24 0.0 0.9814683557200159 0.0 0.018531644279984105
v 0.426784 -0.426784 0.000000 0.73 0.27 0.0 0.9861816071033632 0.0 0.013818392896636778
v 0.452259 -0.396957 0.000000 0.70 0.30 0.0 0.989255833276613 0.0 0.010744166723386961
v 0.472754 -0.363511 0.000000 0.9912293932902457 0.0 0.00877060670975427
v 0.487765 -0.327272 0.000000 0.9924426602912528 0.0 0.007557339708747168
v 0.496922 -0.289130 0.000000 0.9930993835843762 0.0 0.006900616415623784
v -0.500000 -0.250025 -0.000000 0.0066928509242848554 0.0 0.9933071490757152
v -0.496922 -0.289130 -0.000000 0.006900616415623787 0.0 0.9930993835843762
v -0.487765 -0.327272 -0.000000 0.0075573397087471 0.0 0.9924426602912529
v -0.472754 -0.363511 -0.000000 0.008770606709754325 0.0 0.9912293932902456
v -0.452259 -0.396957 -0.000000 0.010744166723386975 0.0 0.989255833276613
v -0.426784 -0.426784 -0.000000 0.013818392896636751 0.0 0.9861816071033632
v -0.396957 -0.452259 -0.000000 0.018531644279984213 0.0 0.9814683557200158
v -0.363511 -0.472754 -0.000000 0.025702961652336067 0.0 0.9742970383476639
v -0.327272 -0.487765 0.000000 0.03651900333531739 0.0 0.9634809966646826
v -0.289130 -0.496922 0.000000 0.05258531462289731 0.0 0.9474146853771027
v -0.250025 -0.500000 0.000000 0.07584065595037139 0.0 0.9241593440496286
v -0.250025 0.500000 0.000000 0.07584065595037139 0.0 0.9241593440496286
v -0.289130 0.496922 0.000000 0.05258531462289731 0.0 0.9474146853771027
v -0.327272 0.487765 0.000000 0.03651900333531739 0.0 0.9634809966646826
v -0.363511 0.472754 -0.000000 0.025702961652336067 0.0 0.9742970383476639
v -0.396957 0.452259 -0.000000 0.018531644279984213 0.0 0.9814683557200158
v -0.426784 0.426784 -0.000000 0.013818392896636751 0.0 0.9861816071033632
v -0.452259 0.396957 -0.000000 0.010744166723386975 0.0 0.989255833276613
v -0.472754 0.363511 -0.000000 0.008770606709754325 0.0 0.9912293932902456
v -0.487765 0.327272 -0.000000 0.0075573397087471 0.0 0.9924426602912529
v -0.496922 0.289130 -0.000000 0.006900616415623787 0.0 0.9930993835843762
v -0.500000 0.250025 -0.000000 0.0066928509242848554 0.0 0.9933071490757152
v 0.500000 0.250025 0.000000 0.9933071490757153 0.0 0.006692850924284732
v 0.496922 0.289130 0.000000 0.9930993835843762 0.0 0.006900616415623784
v 0.487765 0.327272 0.000000 0.9924426602912528 0.0 0.007557339708747168
v 0.472754 0.363511 0.000000 0.9912293932902457 0.0 0.00877060670975427
v 0.452259 0.396957 0.000000 0.989255833276613 0.0 0.010744166723386961
v 0.426784 0.426784 0.000000 0.9861816071033632 0.0 0.013818392896636778
v 0.396957 0.452259 0.000000 0.9814683557200159 0.0 0.018531644279984105
v 0.363511 0.472754 0.000000 0.9742970383476638 0.0 0.02570296165233621
v 0.327271 0.487765 0.000000 0.9634806448093944 0.0 0.03651935519060556
v 0.289130 0.496922 0.000000 0.9474146853771027 0.0 0.05258531462289728
v 0.250025 0.500000 0.000000 0.9241593440496285 0.0 0.07584065595037148
vn -0.0000 -0.0000 1.0000
vt 0.625000 0.312494
vt 0.625000 0.299995
vt 0.625000 0.450005
vt 0.625000 0.437506
vt 0.625000 0.287496
vt 0.625000 0.462504
vt 0.625000 0.274998
vt 0.625000 0.475002
vt 0.625000 0.262499
vt 0.625000 0.487501
vt 0.625000 0.250000
vt 0.625000 0.500000
vt 0.625000 0.237501
vt 0.625000 0.512499
vt 0.625000 0.225002
vt 0.625000 0.524997
vt 0.625000 0.212504
vt 0.625000 0.537496
vt 0.625000 0.200005
vt 0.625000 0.549995
vt 0.625000 0.187506
vt 0.625000 0.562494
vt 0.625000 0.062494
vt 0.625000 0.687506
vt 0.625000 0.049995
vt 0.625000 0.700005
vt 0.625000 0.037496
vt 0.625000 0.712504
vt 0.625000 0.024998
vt 0.625000 0.725003
vt 0.625000 0.012499
vt 0.625000 0.737501
vt 0.625000 0.000000
vt 0.625000 0.750000
vt 0.625000 1.000000
vt 0.625000 0.987501
vt 0.625000 0.762499
vt 0.625000 0.975003
vt 0.625000 0.774997
vt 0.625000 0.962504
vt 0.625000 0.787496
vt 0.625000 0.950005
vt 0.625000 0.799995
vt 0.625000 0.937506
vt 0.625000 0.812494
s 1
usemtl standardSurface1.001
f 12/1/1 13/2/1 32/3/1 33/4/1
f 13/2/1 14/5/1 31/6/1 32/3/1
f 14/5/1 15/7/1 30/8/1 31/6/1
f 15/7/1 16/9/1 29/10/1 30/8/1
f 16/9/1 17/11/1 28/12/1 29/10/1
f 17/11/1 18/13/1 27/14/1 28/12/1
f 18/13/1 19/15/1 26/16/1 27/14/1
f 19/15/1 20/17/1 25/18/1 26/16/1
f 20/17/1 21/19/1 24/20/1 25/18/1
f 21/19/1 22/21/1 23/22/1 24/20/1
f 22/21/1 2/23/1 44/24/1 23/22/1
f 2/23/1 3/25/1 43/26/1 44/24/1
f 3/25/1 4/27/1 42/28/1 43/26/1
f 4/27/1 5/29/1 41/30/1 42/28/1
f 5/29/1 6/31/1 40/32/1 41/30/1
f 6/31/1 7/33/1 39/34/1 40/32/1
f 7/35/1 8/36/1 38/37/1 39/34/1
f 8/36/1 9/38/1 37/39/1 38/37/1
f 9/38/1 10/40/1 36/41/1 37/39/1
f 10/40/1 11/42/1 35/43/1 36/41/1
f 11/42/1 1/44/1 34/45/1 35/43/1
